<?xml version="1.0" encoding="UTF-8"?>
<!DOCTYPE svg PUBLIC "-//W3C//DTD SVG 1.1//EN" "http://www.w3.org/Graphics/SVG/1.1/DTD/svg11.dtd">
<!-- Creator: CorelDRAW X7 -->
<svg xmlns="http://www.w3.org/2000/svg" xml:space="preserve" width="3.27128in" height="2.8778in" version="1.1" style="shape-rendering:geometricPrecision; text-rendering:geometricPrecision; image-rendering:optimizeQuality; fill-rule:evenodd; clip-rule:evenodd"
viewBox="0 0 9518 8373"
 xmlns:xlink="http://www.w3.org/1999/xlink">
 <defs>
  <style type="text/css">
   <![CDATA[
    .fil0 {fill:#036A99;fill-rule:nonzero}
   ]]>
  </style>
 </defs>
 <g id="Camada_x0020_1">
  <metadata id="CorelCorpID_0Corel-Layer"/>
  <path class="fil0" d="M7645 3870c110,138 194,287 249,448 56,160 84,332 84,516 0,214 -37,413 -112,595 -75,183 -188,350 -338,500 -149,150 -315,263 -498,338 -182,76 -380,114 -594,114 -218,0 -417,-37 -600,-110 -182,-74 -347,-184 -495,-331l-1 0c-134,-136 -238,-286 -312,-451 -73,-166 -116,-346 -127,-542l-2 -26c910,-358 1819,-715 2729,-1072l17 21zm-2488 -3854c130,183 229,389 295,616 65,227 98,474 98,742 0,295 -42,561 -125,798 -83,238 -209,447 -375,625 -168,181 -361,317 -582,407 -219,91 -465,136 -737,136 -215,0 -411,-35 -589,-105 -179,-71 -339,-176 -481,-316 -142,-141 -250,-299 -321,-473 -72,-175 -108,-365 -108,-571 0,-158 22,-302 65,-435 44,-133 109,-254 197,-363 88,-108 195,-200 320,-277 99,-62 211,-113 334,-156 -30,-13 -59,-24 -86,-35 -53,-20 -101,-35 -144,-46 -46,-12 -88,-20 -129,-25 -40,-5 -80,-7 -119,-7 -240,0 -458,63 -655,192 -199,129 -377,323 -534,583 -158,261 -277,560 -356,899 -79,339 -119,718 -119,1138l0 2126 1763 0 0 1014 -1760 0c6,143 22,264 49,361 28,103 67,179 117,229 55,55 143,97 262,125 124,30 282,44 472,44l838 0 0 1131 -1756 0c-273,0 -521,-111 -700,-291 -180,-179 -291,-427 -291,-700l0 -6391c0,-273 111,-521 291,-700 179,-180 427,-291 700,-291l4154 0 12 16zm1047 -16l2323 0c273,0 521,111 700,291 180,179 291,427 291,700l0 6391c0,273 -111,521 -291,700 -179,180 -427,291 -700,291l-4962 0 0 -1131 4063 0c189,0 345,-14 467,-41 119,-27 206,-67 261,-119 55,-51 96,-137 124,-258 30,-125 45,-286 45,-482l0 -4164c0,-248 -14,-447 -42,-596 -27,-143 -66,-238 -116,-284 -52,-47 -136,-84 -250,-108 -118,-26 -267,-39 -449,-39l-1253 0 -2 -35c-13,-189 -39,-375 -80,-555 -40,-176 -94,-346 -164,-509l-21 -52 56 0z"/>
 </g>
</svg>
