<?xml version="1.0" encoding="UTF-8"?>
<!DOCTYPE svg PUBLIC "-//W3C//DTD SVG 1.1//EN" "http://www.w3.org/Graphics/SVG/1.1/DTD/svg11.dtd">
<!-- Creator: CorelDRAW X7 -->
<svg xmlns="http://www.w3.org/2000/svg" xml:space="preserve" width="1.5024in" height="0.567268in" version="1.1" style="shape-rendering:geometricPrecision; text-rendering:geometricPrecision; image-rendering:optimizeQuality; fill-rule:evenodd; clip-rule:evenodd"
viewBox="0 0 1502 567"
 xmlns:xlink="http://www.w3.org/1999/xlink">
 <defs>
  <style type="text/css">
   <![CDATA[
    .fil1 {fill:#96989A;fill-rule:nonzero}
    .fil0 {fill:#036A99;fill-rule:nonzero}
   ]]>
  </style>
 </defs>
 <g id="Camada_x0020_1">
  <metadata id="CorelCorpID_0Corel-Layer"/>
  <g id="_648528528">
   <path class="fil0" d="M183 276l55 0c-2,30 -12,54 -31,71 -19,17 -45,25 -78,25 -41,0 -73,-12 -95,-35 -23,-23 -34,-56 -34,-99 0,-40 12,-73 35,-97 24,-24 55,-36 96,-36 33,0 59,8 79,24 20,16 30,36 30,62 0,16 -5,30 -14,39 -10,10 -23,15 -39,15 -13,0 -24,-4 -32,-12 -8,-7 -12,-17 -12,-30 0,-12 4,-22 11,-28 7,-7 16,-11 29,-11l1 0c-5,-5 -11,-9 -16,-11 -6,-2 -12,-3 -19,-3 -19,0 -33,7 -42,21 -10,15 -15,36 -15,65 0,30 4,52 12,66 8,14 20,21 37,21 13,0 23,-4 30,-12 7,-8 11,-20 12,-35z"/>
   <path class="fil0" d="M1310 239c0,33 3,56 11,69 7,12 19,19 37,19 19,0 31,-7 38,-19 8,-13 11,-36 11,-69 0,-34 -3,-57 -11,-69 -7,-13 -19,-19 -38,-19 -18,0 -30,6 -37,19 -8,12 -11,35 -11,69zm-602 -11c6,7 9,16 9,25 0,11 -4,20 -12,28 -8,8 -17,12 -28,12 -11,0 -20,-4 -28,-12 -7,-7 -11,-15 -11,-25l70 -28zm-431 135l-55 -167c-5,-15 -9,-25 -15,-30 -5,-5 -12,-7 -22,-7l-6 0 0 -44 154 0 0 44 -7 0c-11,0 -18,0 -21,2 -2,2 -3,5 -3,9 0,2 0,4 1,6 0,3 1,6 2,9l39 119 40 -115c2,-4 3,-8 4,-11 0,-4 1,-6 1,-8 0,-4 -2,-7 -5,-9 -3,-2 -9,-2 -16,-2l-7 0 0 -44 141 0 9 0 30 0 0 25c9,-11 19,-19 29,-24 11,-6 22,-8 34,-8 18,0 33,5 44,15 11,11 16,25 16,42 0,16 -4,28 -13,37 -8,9 -20,14 -34,14 -11,0 -20,-4 -27,-11 -7,-7 -11,-16 -11,-26 0,-9 2,-15 7,-21 4,-5 11,-9 19,-12 -4,-1 -6,-2 -9,-3 -2,0 -4,-1 -6,-1 -13,0 -24,7 -32,21 -9,14 -13,32 -13,54l0 47 45 0 0 28 -45 0 0 4c0,10 1,16 5,20 3,3 9,4 20,4l19 0 0 43 -124 0 -65 0 62 -165c2,-5 4,-8 6,-10 3,-1 6,-2 9,-2l0 0 6 0 0 -28 -6 0 0 0c-9,0 -17,2 -25,7 -7,5 -12,13 -16,23l-66 175 -13 0 -80 0zm467 -173l0 -4c0,-13 -1,-21 -4,-23 -3,-3 -10,-4 -19,-4l-29 0c-1,-16 -6,-31 -14,-44l155 0 0 181c0,10 1,17 4,20 3,3 10,4 20,4l9 0 0 43 -249 0 0 -43 103 0c10,0 16,-1 19,-4 4,-3 5,-10 5,-20l0 -106zm-4 -147c0,-12 4,-22 13,-30 8,-9 19,-13 31,-13 12,0 22,4 30,13 9,8 13,18 13,30 0,13 -4,23 -13,32 -8,8 -18,12 -30,12 -13,0 -23,-4 -31,-12 -9,-9 -13,-19 -13,-32zm155 277l11 0c10,0 17,-1 20,-4 3,-4 5,-10 5,-20l0 -114c0,-10 -2,-17 -5,-20 -3,-3 -10,-4 -20,-4l-13 0 0 -43 121 0 0 38c11,-15 24,-26 39,-33 15,-8 31,-12 49,-12 30,0 52,7 64,21 13,13 19,37 19,71l0 96c0,10 1,16 5,20 3,3 9,4 19,4l8 0 0 43 -146 0 0 -43 2 0c10,0 16,-1 20,-4 3,-4 5,-10 5,-20l0 -96c0,-15 -3,-26 -10,-33 -6,-8 -15,-12 -27,-12 -13,0 -24,5 -31,15 -8,10 -11,23 -11,42l0 84c0,10 1,16 5,20 3,3 9,4 19,4l0 43 -148 0 0 -43zm320 -81c0,-41 13,-74 38,-98 26,-24 61,-36 105,-36 45,0 80,12 106,36 26,24 38,57 38,98 0,41 -12,74 -38,97 -26,24 -61,36 -106,36 -44,0 -79,-12 -105,-36 -25,-23 -38,-56 -38,-97z"/>
   <path class="fil1" d="M40 542l20 0c15,0 26,-2 34,-9 11,-7 17,-19 17,-33 0,-15 -7,-27 -19,-35 -8,-5 -18,-7 -29,-7l-23 0 0 84zm11 -10l0 -64 11 0c9,0 18,1 25,6 7,5 13,14 13,26 0,12 -5,21 -13,26 -7,5 -15,6 -25,6l-11 0zm105 10l49 0 0 -10 -38 0 0 -29 32 0 0 -9 -32 0 0 -26 37 0 0 -10 -48 0 0 84zm92 -5c7,4 17,6 25,6 17,0 28,-9 28,-24 0,-16 -12,-21 -24,-24 -10,-3 -20,-5 -20,-15 0,-9 7,-13 16,-13 7,0 16,3 24,8l0 -12c-7,-4 -16,-6 -24,-6 -16,0 -27,9 -27,23 0,16 12,21 23,24 11,3 21,5 21,15 0,10 -7,14 -17,14 -7,0 -17,-2 -25,-8l0 12zm98 5l11 0 0 -84 -11 0 0 84zm56 -42c0,25 18,43 43,43 11,0 22,-3 29,-8l0 -35 -30 0 0 10 19 0 0 19c-5,3 -11,4 -17,4 -21,0 -33,-15 -33,-33 0,-18 13,-33 33,-33 10,0 19,4 25,10l0 -13c-6,-4 -14,-7 -25,-7 -26,0 -44,19 -44,43zm131 42l0 -42c0,-8 0,-17 0,-24l0 0c5,7 9,13 14,20l35 46 10 0 0 -84 -10 0 0 42c0,8 0,17 0,24l0 0c-5,-6 -10,-13 -15,-19l-34 -47 -11 0 0 84 11 0zm190 -50l-7 23 -16 -17 5 -3c7,-4 11,-10 11,-18 0,-11 -8,-20 -21,-20 -12,0 -21,8 -21,20 0,7 3,12 8,17l3 3 -3 1c-10,6 -15,13 -15,22 0,12 10,23 28,23 12,0 21,-5 25,-11l10 10 13 0 0 0 -19 -19 10 -31 -11 0zm-27 42c-12,0 -18,-7 -18,-15 0,-5 3,-10 9,-13l4 -3 21 21c-3,6 -8,10 -16,10zm-12 -57c0,-6 4,-10 11,-10 6,0 11,4 11,10 0,5 -3,8 -8,11l-5 4 -3 -4c-4,-4 -6,-7 -6,-11zm121 23c0,25 18,43 44,43 9,0 18,-2 24,-6l0 -12c-6,5 -14,8 -24,8 -20,0 -33,-14 -33,-33 0,-18 13,-33 32,-33 9,0 18,3 24,8l0 -12c-7,-4 -15,-6 -23,-6 -27,0 -44,20 -44,43zm114 42l11 0 0 -36 14 0 26 36 13 0 -27 -37c4,0 7,-2 10,-3 6,-4 11,-11 11,-20 0,-9 -5,-16 -12,-19 -7,-4 -15,-5 -23,-5l-23 0 0 84zm11 -45l0 -29 11 0c8,0 13,1 18,3 4,3 7,7 7,12 0,5 -2,8 -5,10 -4,3 -9,4 -17,4l-14 0zm95 45l11 0 0 -84 -11 0 0 84zm52 0l11 0 9 -23 38 0 9 23 12 0 -35 -84 -10 0 -34 84zm31 -50c3,-7 5,-14 8,-21l0 0c3,7 5,14 8,21l7 17 -30 0 7 -17zm115 60c4,0 11,1 11,5 0,3 -3,5 -6,5 -2,0 -5,-1 -7,-3l-2 6c3,1 6,2 9,2 8,0 13,-4 13,-10 0,-6 -5,-9 -11,-10l1 -4c11,0 20,-2 26,-6l0 -12c-6,5 -14,8 -24,8 -19,0 -33,-14 -33,-33 0,-18 14,-33 33,-33 8,0 17,3 23,8l0 -12c-6,-4 -15,-6 -23,-6 -26,0 -44,20 -44,43 0,22 15,40 37,43l-3 9zm72 -10l11 0 9 -23 38 0 9 23 12 0 -35 -84 -10 0 -34 84zm31 -50c3,-7 5,-14 8,-21l0 0c3,7 6,14 8,21l7 17 -30 0 7 -17zm7 -47c4,2 7,3 10,3 4,0 7,-2 9,-5l0 -9 0 0c-2,2 -5,5 -9,5 -3,0 -5,-1 -8,-2 -3,-2 -6,-3 -9,-3 -4,0 -8,2 -10,5l0 9 0 0c3,-3 6,-6 10,-6 2,0 4,1 7,3l0 0zm74 55c0,24 18,43 43,43 24,0 42,-19 42,-43 0,-24 -18,-43 -42,-43 -25,0 -43,19 -43,43zm11 0c0,-18 13,-33 32,-33 18,0 31,15 31,33 0,18 -13,33 -31,33 -19,0 -32,-15 -32,-33z"/>
  </g>
 </g>
</svg>
