<?xml version="1.0" encoding="UTF-8"?>
<!DOCTYPE svg PUBLIC "-//W3C//DTD SVG 1.1//EN" "http://www.w3.org/Graphics/SVG/1.1/DTD/svg11.dtd">
<!-- Creator: CorelDRAW X7 -->
<svg xmlns="http://www.w3.org/2000/svg" xml:space="preserve" width="0.502783in" height="0.505185in" version="1.1" style="shape-rendering:geometricPrecision; text-rendering:geometricPrecision; image-rendering:optimizeQuality; fill-rule:evenodd; clip-rule:evenodd"
viewBox="0 0 42 42"
 xmlns:xlink="http://www.w3.org/1999/xlink">
 <defs>
  <style type="text/css">
   <![CDATA[
    .fil0 {fill:#339966}
   ]]>
  </style>
 </defs>
 <g id="Camada_x0020_1">
  <metadata id="CorelCorpID_0Corel-Layer"/>
  <path class="fil0" d="M30 25c0,0 -3,-1 -3,-2 -1,0 -1,0 -1,1 -1,0 -2,1 -2,2 0,0 -1,0 -1,0 -1,0 -2,-1 -4,-3 -2,-1 -3,-3 -3,-3 0,-1 0,-1 0,-1 0,-1 1,-1 1,-1 0,-1 0,-1 0,-1 1,-1 0,-1 0,-1 0,0 -1,-3 -1,-4 -1,-1 -1,-1 -1,-1 -1,0 -1,0 -1,0 -1,0 -1,0 -2,1 0,0 -2,2 -2,4 0,3 2,5 2,5 1,1 4,6 9,8 2,1 3,1 3,1 1,1 2,1 4,1 1,-1 3,-2 3,-3 0,-1 0,-2 0,-2 0,-1 0,-1 -1,-1l0 0zm-9 13c-3,0 -6,-1 -9,-2l-1 -1 -6 2 2 -6 -1 -1c-1,-3 -2,-6 -2,-9 0,-10 7,-18 17,-18 9,0 17,8 17,18l0 0c0,9 -8,17 -17,17l0 0zm15 -32c-4,-4 -10,-6 -15,-6 -12,0 -21,9 -21,21 0,3 1,7 3,10l-3 11 11 -3c3,2 6,2 10,2l0 0c11,0 21,-9 21,-20 0,-6 -3,-11 -6,-15l0 0z"/>
 </g>
</svg>
