<?xml version="1.0" encoding="UTF-8"?>
<!DOCTYPE svg PUBLIC "-//W3C//DTD SVG 1.1//EN" "http://www.w3.org/Graphics/SVG/1.1/DTD/svg11.dtd">
<!-- Creator: CorelDRAW X7 -->
<svg xmlns="http://www.w3.org/2000/svg" xml:space="preserve" width="0.520626in" height="0.366181in" version="1.1" style="shape-rendering:geometricPrecision; text-rendering:geometricPrecision; image-rendering:optimizeQuality; fill-rule:evenodd; clip-rule:evenodd"
viewBox="0 0 101 71"
 xmlns:xlink="http://www.w3.org/1999/xlink">
 <defs>
  <style type="text/css">
   <![CDATA[
    .fil0 {fill:#DC0000}
   ]]>
  </style>
 </defs>
 <g id="Camada_x0020_1">
  <metadata id="CorelCorpID_0Corel-Layer"/>
  <path class="fil0" d="M100 15c0,0 -1,-7 -4,-10 -4,-4 -8,-4 -10,-4 -14,-1 -36,-1 -36,-1 0,0 -21,0 -35,1 -2,0 -6,0 -10,4 -3,3 -4,10 -4,10 -1,6 -1,11 -1,17l0 7c0,6 0,11 1,17 0,0 1,7 4,10 4,4 9,4 11,4 8,1 34,1 34,1 0,0 22,0 36,-1 2,0 6,0 10,-4 3,-3 4,-10 4,-10 1,-6 1,-11 1,-17l0 -7c0,-6 0,-11 -1,-17l0 0zm-60 34l0 -29 27 14 -27 15z"/>
 </g>
</svg>
